<svg xmlns="http://www.w3.org/2000/svg" xmlns:xlink="http://www.w3.org/1999/xlink" viewBox="0,0,255.99704,255.99704" width="96px" height="96px" fill-rule="nonzero"><g transform="translate(82.66571,82.66571) scale(0.35417,0.35417)"><g fill="none" fill-rule="nonzero" stroke="none" stroke-width="none" stroke-linecap="butt" stroke-linejoin="none" stroke-miterlimit="10" stroke-dasharray="" stroke-dashoffset="0" font-family="none" font-weight="none" font-size="none" text-anchor="none" style="mix-blend-mode: normal"><path transform="scale(2.66667,2.66667)" d="M48,85.503c-0.001,0 -0.002,0 -0.003,0c-17.995,-0.002 -37.56,-11.722 -37.997,-37.454c0,-0.034 0,-0.068 0,-0.102c0.258,-15.108 7.645,-27.297 20.268,-33.441c13.327,-6.489 30.023,-4.994 41.542,3.721c1.01,0.764 1.4,2.043 1.082,3.194c1.111,-0.441 2.426,-0.19 3.294,0.733c6.247,6.643 9.64,15.563 9.813,25.795c0,0.034 0,0.068 0,0.102c-0.439,25.732 -20.005,37.451 -37.999,37.452z" id="strokeMainSVG" fill="#dddddd" stroke="#dddddd" stroke-width="12" stroke-linejoin="round"></path><g transform="scale(2.66667,2.66667)" stroke="none" stroke-width="1" stroke-linejoin="miter"><path d="M48,85.503c-0.001,0 -0.002,0 -0.003,0c-17.995,-0.002 -37.56,-11.722 -37.997,-37.454c0,-0.034 0,-0.068 0,-0.102c0.258,-15.108 7.645,-27.297 20.268,-33.441c13.327,-6.489 30.023,-4.994 41.542,3.721c1.01,0.764 1.4,2.043 1.082,3.194c1.111,-0.441 2.426,-0.19 3.294,0.733c6.247,6.643 9.64,15.563 9.813,25.795c0,0.034 0,0.068 0,0.102c-0.439,25.732 -20.005,37.451 -37.999,37.452zM16,47.999c0.393,21.643 16.855,31.503 31.997,31.504c15.143,0 31.607,-9.858 32.003,-31.503c-0.158,-8.694 -2.987,-16.209 -8.185,-21.735c-0.745,-0.792 -0.976,-1.881 -0.706,-2.857c-0.943,0.373 -2.052,0.26 -2.919,-0.396c-9.761,-7.386 -23.947,-8.637 -35.296,-3.111c-10.66,5.188 -16.658,15.165 -16.894,28.098z" fill="#263151" opacity="0.3"></path><path d="M48,84.503c-0.001,0 -0.002,0 -0.003,0c-17.521,-0.002 -36.572,-11.415 -36.997,-36.471c0.251,-14.786 7.434,-26.654 19.705,-32.627c12.999,-6.329 29.276,-4.875 40.501,3.619c0.881,0.666 1.055,1.92 0.388,2.801c-0.666,0.881 -1.921,1.055 -2.801,0.388c-10.055,-7.606 -24.658,-8.898 -36.337,-3.212c-11.029,5.369 -17.228,15.679 -17.456,29.032c0.379,22.286 17.371,32.469 32.998,32.47c15.627,0.001 32.621,-10.181 33.002,-32.537c-0.152,-8.901 -3.076,-16.666 -8.457,-22.387c-0.757,-0.805 -0.718,-2.07 0.087,-2.827c0.805,-0.756 2.07,-0.717 2.827,0.087c6.074,6.458 9.374,15.147 9.542,25.127c-0.427,25.125 -19.478,36.536 -36.999,36.537z" fill="#263151" opacity="0.3"></path><path d="M61.653,68.067c-7.3,0 -13.24,-5.939 -13.24,-13.24v-3.827c0,-1.657 1.343,-3 3,-3c1.657,0 3,1.343 3,3v3.827c0,3.992 3.248,7.24 7.24,7.24c3.992,0 7.24,-3.248 7.24,-7.24v-8.093h-0.827v8.093c0,3.537 -2.877,6.414 -6.414,6.414c-3.536,0 -6.413,-2.877 -6.413,-6.414v-3.827c0,-1.657 1.343,-3 3,-3c1.657,0 3,1.343 3,3v3.827c0,0.224 0.189,0.414 0.413,0.414c0.224,0 0.414,-0.189 0.414,-0.414v-11.094c0,-1.657 1.343,-3 3,-3h6.827c1.657,0 3,1.343 3,3v11.093c0.001,7.301 -5.939,13.241 -13.24,13.241z" fill="#141515" opacity="0.3"></path><path d="M61.653,67.067c-6.749,0 -12.24,-5.491 -12.24,-12.24v-3.827c0,-1.104 0.896,-2 2,-2c1.104,0 2,0.896 2,2v3.827c0,4.543 3.696,8.24 8.24,8.24c4.544,0 8.24,-3.697 8.24,-8.24v-9.093h-2.827v9.093c0,2.985 -2.429,5.414 -5.414,5.414c-2.985,0 -5.413,-2.429 -5.413,-5.414v-3.827c0,-1.104 0.896,-2 2,-2c1.104,0 2,0.896 2,2v3.827c0,0.779 0.634,1.414 1.413,1.414c0.779,0 1.414,-0.634 1.414,-1.414v-11.094c0,-1.104 0.896,-2 2,-2h6.827c1.104,0 2,0.896 2,2v11.093c0.001,6.75 -5.49,12.241 -12.24,12.241z" fill="#141515" opacity="0.3"></path><path d="M34.347,68.067c-7.301,0 -13.24,-5.939 -13.24,-13.24v-10.24c0,-1.657 1.343,-3 3,-3h6.827c1.657,0 3,1.343 3,3v10.24c0,0.224 0.189,0.414 0.414,0.414c0.225,0 0.413,-0.189 0.413,-0.414v-16.214c0,-7.3 5.939,-13.24 13.24,-13.24c7.301,0 13.24,5.939 13.24,13.24v4.267c0,3.537 -2.877,6.414 -6.414,6.414c-3.536,0 -6.413,-2.877 -6.413,-6.414v-4.267c0,-0.224 -0.189,-0.413 -0.414,-0.413c-0.225,0 -0.414,0.189 -0.414,0.413v16.213c0,7.301 -5.939,13.241 -13.239,13.241zM27.106,47.586v7.24c0,3.992 3.248,7.24 7.24,7.24c3.992,0 7.24,-3.248 7.24,-7.24v-16.213c0,-3.536 2.877,-6.413 6.414,-6.413c3.537,0 6.414,2.877 6.414,6.413v4.267c0,0.228 0.186,0.414 0.413,0.414c0.228,0 0.414,-0.186 0.414,-0.414v-4.267c0,-3.992 -3.248,-7.24 -7.24,-7.24c-3.992,0 -7.24,3.248 -7.24,7.24v16.213c0,3.537 -2.877,6.414 -6.413,6.414c-3.537,0 -6.414,-2.877 -6.414,-6.414v-7.24z" fill="#141515" opacity="0.3"></path><path d="M34.347,67.067c-6.75,0 -12.24,-5.491 -12.24,-12.24v-10.24c0,-1.104 0.896,-2 2,-2h6.827c1.104,0 2,0.896 2,2v10.24c0,0.779 0.634,1.414 1.414,1.414c0.78,0 1.413,-0.634 1.413,-1.414v-16.214c0,-6.749 5.491,-12.24 12.24,-12.24c6.749,0 12.24,5.491 12.24,12.24v4.267c0,2.985 -2.429,5.414 -5.414,5.414c-2.985,0 -5.413,-2.429 -5.413,-5.414v-4.267c0,-0.779 -0.634,-1.413 -1.414,-1.413c-0.78,0 -1.414,0.634 -1.414,1.413v16.213c0,6.75 -5.49,12.241 -12.239,12.241zM26.106,46.586v8.24c0,4.543 3.697,8.24 8.24,8.24c4.543,0 8.24,-3.697 8.24,-8.24v-16.213c0,-2.985 2.429,-5.413 5.414,-5.413c2.985,0 5.414,2.428 5.414,5.413v4.267c0,0.779 0.634,1.414 1.413,1.414c0.779,0 1.414,-0.634 1.414,-1.414v-4.267c0,-4.543 -3.697,-8.24 -8.24,-8.24c-4.543,0 -8.24,3.696 -8.24,8.24v16.213c0,2.985 -2.428,5.414 -5.413,5.414c-2.985,0 -5.414,-2.429 -5.414,-5.414v-8.24z" fill="#141515" opacity="0.3"></path><path d="M48,83.503c-0.001,0 -0.002,0 -0.003,0c-17.047,-0.002 -35.584,-11.107 -35.997,-35.487c0.245,-14.363 7.222,-25.909 19.143,-31.711c12.67,-6.167 28.528,-4.753 39.46,3.518c0.44,0.333 0.527,0.96 0.194,1.401c-0.333,0.439 -0.961,0.527 -1.401,0.194c-10.347,-7.827 -25.368,-9.16 -37.378,-3.314c-11.384,5.541 -17.783,16.164 -18.018,29.912c0.39,22.996 17.896,33.486 33.998,33.487c16.101,0.001 33.609,-10.488 34.002,-33.52c-0.156,-9.188 -3.174,-17.183 -8.728,-23.089c-0.378,-0.402 -0.359,-1.035 0.043,-1.414c0.402,-0.379 1.035,-0.359 1.414,0.043c5.9,6.274 9.106,14.732 9.271,24.459c-0.417,24.416 -18.953,35.52 -36,35.521z" fill="#263151"></path><path d="M61.653,66.067c-6.198,0 -11.24,-5.042 -11.24,-11.24v-3.827c0,-0.552 0.448,-1 1,-1c0.552,0 1,0.448 1,1v3.827c0,5.095 4.145,9.24 9.24,9.24c5.095,0 9.24,-4.145 9.24,-9.24v-10.094h-4.827v10.093c0,2.434 -1.98,4.414 -4.414,4.414c-2.434,0 -4.413,-1.98 -4.413,-4.414v-3.826c0,-0.552 0.448,-1 1,-1c0.552,0 1,0.448 1,1v3.827c0,1.331 1.083,2.414 2.413,2.414c1.331,0 2.414,-1.083 2.414,-2.414v-11.094c0,-0.552 0.448,-1 1,-1h6.827c0.552,0 1,0.448 1,1v11.093c0.001,6.198 -5.042,11.241 -11.24,11.241z" fill="#141515"></path><path d="M34.347,66.067c-6.198,0 -11.24,-5.042 -11.24,-11.24v-10.24c0,-0.552 0.448,-1 1,-1h6.827c0.552,0 1,0.448 1,1v10.24c0,1.331 1.083,2.414 2.414,2.414c1.331,0 2.413,-1.083 2.413,-2.414v-16.214c0,-6.198 5.042,-11.24 11.24,-11.24c6.198,0 11.24,5.042 11.24,11.24v4.267c0,2.434 -1.98,4.414 -4.414,4.414c-2.434,0 -4.413,-1.98 -4.413,-4.414v-4.267c0,-1.331 -1.083,-2.413 -2.414,-2.413c-1.331,0 -2.414,1.083 -2.414,2.413v16.213c0,6.198 -5.042,11.241 -11.239,11.241zM25.106,45.586v9.24c0,5.095 4.145,9.24 9.24,9.24c5.095,0 9.24,-4.145 9.24,-9.24v-16.213c0,-2.434 1.98,-4.413 4.414,-4.413c2.434,0 4.414,1.979 4.414,4.413v4.267c0,1.331 1.083,2.414 2.413,2.414c1.331,0 2.414,-1.083 2.414,-2.414v-4.267c0,-5.095 -4.145,-9.24 -9.24,-9.24c-5.095,0 -9.24,4.145 -9.24,9.24v16.213c0,2.434 -1.979,4.414 -4.413,4.414c-2.434,0 -4.414,-1.98 -4.414,-4.414v-9.24z" fill="#141515"></path></g></g></g></svg>